<?xml version="1.0" encoding="UTF-8"?>
<!DOCTYPE svg PUBLIC "-//W3C//DTD SVG 1.1//EN" "http://www.w3.org/Graphics/SVG/1.1/DTD/svg11.dtd">
<svg xmlns="http://www.w3.org/2000/svg" version="1.1" width="512px" height="512px" style="shape-rendering:geometricPrecision; text-rendering:geometricPrecision; image-rendering:optimizeQuality; fill-rule:evenodd; clip-rule:evenodd" xmlns:xlink="http://www.w3.org/1999/xlink">
<g><path style="opacity:0.924" fill="#000000" d="M 231.5,-0.5 C 247.167,-0.5 262.833,-0.5 278.5,-0.5C 345.615,6.30966 402.782,33.643 450,81.5C 456.982,94.1462 455.482,105.646 445.5,116C 435.906,122.448 425.906,123.114 415.5,118C 347.159,52.4184 267.826,34.4184 177.5,64C 147.294,75.593 120.96,92.9263 98.5,116C 88.906,122.448 78.906,123.114 68.5,118C 55.9598,107.994 53.4598,95.8273 61,81.5C 89.4607,51.6988 123.127,30.0321 162,16.5C 164.981,16.0815 167.314,17.0815 169,19.5C 170.262,23.9094 169.428,27.7428 166.5,31C 130.895,44.0407 100.062,64.2074 74,91.5C 71.3866,100.777 74.8866,105.277 84.5,105C 153.285,40.0887 233.619,19.7554 325.5,44C 362.77,55.7903 395.103,75.4569 422.5,103C 430.436,107.198 435.769,105.031 438.5,96.5C 438.101,94.8034 437.601,93.1368 437,91.5C 387.052,41.6261 326.552,15.9594 255.5,14.5C 234.029,15.6879 212.695,17.8546 191.5,21C 186.632,16.8279 186.298,12.3279 190.5,7.5C 204.045,3.63437 217.712,0.967703 231.5,-0.5 Z"/></g>
<g><path style="opacity:0.926" fill="#000000" d="M 251.5,79.5 C 294.674,79.6071 332.674,93.4404 365.5,121C 381.037,132.808 383.87,146.974 374,163.5C 363.379,172.709 351.879,173.875 339.5,167C 301.181,130.136 257.181,121.47 207.5,141C 193.823,147.343 181.823,156.01 171.5,167C 157.428,174.658 145.262,172.491 135,160.5C 129.35,150.349 129.684,140.349 136,130.5C 167.907,98.631 206.407,81.631 251.5,79.5 Z M 249.5,95.5 C 289.257,95.0614 324.257,107.561 354.5,133C 359.212,136.536 362.546,141.036 364.5,146.5C 362.785,153.357 358.451,156.19 351.5,155C 310.285,116.154 262.618,105.487 208.5,123C 190.638,130.091 174.972,140.425 161.5,154C 153.557,156.862 148.557,154.195 146.5,146C 147.329,144.184 148.163,142.351 149,140.5C 176.954,113.106 210.454,98.106 249.5,95.5 Z"/></g>
<g><path style="opacity:0.926" fill="#000000" d="M 247.5,162.5 C 281.427,161.192 310.261,172.525 334,196.5C 341.123,209.501 339.623,221.334 329.5,232C 320.19,238.276 310.524,238.943 300.5,234C 277.03,210.66 251.03,207.327 222.5,224C 217.644,229.196 211.977,233.196 205.5,236C 182.953,239.121 172.119,229.287 173,206.5C 173.856,202.456 175.522,198.789 178,195.5C 197.308,176.262 220.474,165.262 247.5,162.5 Z M 247.5,178.5 C 276.208,177.116 300.708,186.449 321,206.5C 324.444,215.794 321.277,220.627 311.5,221C 303.714,214.551 295.381,208.884 286.5,204C 254.977,191.474 226.977,196.807 202.5,220C 192.528,222.597 188.028,218.763 189,208.5C 204.735,191.216 224.235,181.216 247.5,178.5 Z"/></g>
<g><path style="opacity:0.926" fill="#000000" d="M 246.5,241.5 C 281.745,239.6 303.912,255.6 313,289.5C 316.41,315.505 307.244,335.672 285.5,350C 264.104,360.546 243.104,359.88 222.5,348C 200.459,330.878 192.959,308.711 200,281.5C 208.085,259.397 223.585,246.064 246.5,241.5 Z M 248.5,257.5 C 273.652,256.168 289.819,267.502 297,291.5C 299.384,316.767 288.55,333.267 264.5,341C 238.306,343.788 221.473,332.622 214,307.5C 212,281.358 223.5,264.692 248.5,257.5 Z"/></g>
<g><path style="opacity:0.91" fill="#000000" d="M 272.5,277.5 C 283.429,277.04 286.596,281.706 282,291.5C 272.804,301.03 263.304,310.197 253.5,319C 248.972,321.19 244.639,320.856 240.5,318C 236.333,313.833 232.167,309.667 228,305.5C 225.332,298.837 227.498,294.503 234.5,292.5C 239.964,294.454 244.464,297.788 248,302.5C 256.369,294.298 264.536,285.965 272.5,277.5 Z"/></g>
<g><path style="opacity:0.953" fill="#000000" d="M 370.5,511.5 C 293.833,511.5 217.167,511.5 140.5,511.5C 130.851,508.017 124.351,501.35 121,491.5C 120.333,458.5 120.333,425.5 121,392.5C 125.174,379.661 134.007,372.828 147.5,372C 191.167,371.333 234.833,371.333 278.5,372C 287.322,374.954 288.656,379.954 282.5,387C 237.5,387.333 192.5,387.667 147.5,388C 142.611,388.556 139.111,391.056 137,395.5C 136.333,426.5 136.333,457.5 137,488.5C 139.264,493.383 143.098,495.883 148.5,496C 219.833,496.667 291.167,496.667 362.5,496C 370,495.167 374.167,491 375,483.5C 375.667,455.833 375.667,428.167 375,400.5C 374.293,393.459 370.459,389.293 363.5,388C 345.5,387.667 327.5,387.333 309.5,387C 306.634,385.607 305.301,383.274 305.5,380C 305.372,375.13 307.706,372.463 312.5,372C 331.867,371.092 351.201,371.426 370.5,373C 383.339,377.174 390.172,386.007 391,399.5C 391.945,430.197 391.611,460.864 390,491.5C 386.649,501.35 380.149,508.017 370.5,511.5 Z"/></g>
<g><path style="opacity:0.934" fill="#000000" d="M 162.5,401.5 C 165.508,401.877 168.008,403.211 170,405.5C 172.795,418.473 175.461,431.473 178,444.5C 182.198,432.24 186.198,419.906 190,407.5C 192.435,402.776 196.269,401.276 201.5,403C 202.416,403.374 203.25,403.874 204,404.5C 208.733,418.033 213.066,431.7 217,445.5C 219.493,431.699 222.493,418.032 226,404.5C 230.665,401.544 234.998,401.878 239,405.5C 239.875,406.873 240.375,408.373 240.5,410C 236.205,431.142 232.038,452.309 228,473.5C 225.832,480.836 220.999,483.336 213.5,481C 212.333,479.833 211.167,478.667 210,477.5C 205.845,464.546 201.845,451.546 198,438.5C 193.279,451.33 188.945,464.33 185,477.5C 180.016,482.459 174.682,482.793 169,478.5C 163.849,455.58 159.016,432.58 154.5,409.5C 155.588,405.078 158.254,402.412 162.5,401.5 Z"/></g>
<g><path style="opacity:0.925" fill="#000000" d="M 261.5,401.5 C 265.57,401.735 268.403,403.735 270,407.5C 270.667,430.5 270.667,453.5 270,476.5C 266.726,481.738 262.226,482.904 256.5,480C 255.874,479.25 255.374,478.416 255,477.5C 254.333,453.833 254.333,430.167 255,406.5C 256.563,403.977 258.73,402.31 261.5,401.5 Z"/></g>
<g><path style="opacity:0.927" fill="#000000" d="M 347.5,401.5 C 351.983,401.816 354.817,404.149 356,408.5C 356.667,430.833 356.667,453.167 356,475.5C 355.109,479.562 352.609,481.562 348.5,481.5C 345.029,481.849 342.529,480.516 341,477.5C 340.333,453.833 340.333,430.167 341,406.5C 342.272,403.508 344.438,401.841 347.5,401.5 Z"/></g>
<g><path style="opacity:0.932" fill="#000000" d="M 289.5,402.5 C 300.172,402.333 310.839,402.5 321.5,403C 328.288,408.439 327.955,413.439 320.5,418C 313.842,418.5 307.175,418.666 300.5,418.5C 300.5,423.5 300.5,428.5 300.5,433.5C 306.509,433.334 312.509,433.501 318.5,434C 325.987,438.606 326.321,443.606 319.5,449C 313.175,449.5 306.842,449.666 300.5,449.5C 300.948,459.273 300.448,468.939 299,478.5C 295.281,481.902 291.114,482.402 286.5,480C 285.874,479.25 285.374,478.416 285,477.5C 284.333,453.833 284.333,430.167 285,406.5C 286.397,404.93 287.897,403.596 289.5,402.5 Z"/></g>
</svg>
