<?xml version="1.0" encoding="UTF-8"?>
<!DOCTYPE svg PUBLIC "-//W3C//DTD SVG 1.1//EN" "http://www.w3.org/Graphics/SVG/1.1/DTD/svg11.dtd">
<svg xmlns="http://www.w3.org/2000/svg" version="1.1" width="512px" height="512px" style="shape-rendering:geometricPrecision; text-rendering:geometricPrecision; image-rendering:optimizeQuality; fill-rule:evenodd; clip-rule:evenodd" xmlns:xlink="http://www.w3.org/1999/xlink">
<g><path style="opacity:0.971" fill="#000000" d="M 327.5,9.5 C 331.131,9.16039 334.464,9.99372 337.5,12C 359.333,33.8333 381.167,55.6667 403,77.5C 406.498,83.3489 405.998,88.8489 401.5,94C 382.257,95.6412 362.923,95.9745 343.5,95C 331,91.8333 323.167,84 320,71.5C 319.333,52.8333 319.333,34.1667 320,15.5C 322.114,12.8792 324.614,10.8792 327.5,9.5 Z"/></g>
<g><path style="opacity:0.988" fill="#000000" d="M 69.5,10.5 C 146.5,10.5 223.5,10.5 300.5,10.5C 283.837,97.1704 318.837,132.17 405.5,115.5C 405.833,175.837 405.5,236.17 404.5,296.5C 350.091,278.359 304.591,291.359 268,335.5C 241.468,375.775 238.468,417.775 259,461.5C 263.456,468.099 267.623,474.766 271.5,481.5C 205.499,481.667 139.499,481.5 73.5,481C 56.1654,479.666 45.6654,470.499 42,453.5C 41.3333,315.167 41.3333,176.833 42,38.5C 44.6794,22.6549 53.846,13.3215 69.5,10.5 Z M 125.5,138.5 C 158.835,138.333 192.168,138.5 225.5,139C 232.984,141.812 235.151,146.978 232,154.5C 229.806,157.181 226.973,158.681 223.5,159C 191.5,159.667 159.5,159.667 127.5,159C 117.491,156.475 114.991,150.642 120,141.5C 121.876,140.391 123.709,139.391 125.5,138.5 Z M 127.5,191.5 C 191.501,191.333 255.501,191.5 319.5,192C 329.509,194.525 332.009,200.358 327,209.5C 325.352,210.717 323.519,211.55 321.5,212C 256.167,212.667 190.833,212.667 125.5,212C 118.016,209.188 115.849,204.022 119,196.5C 121.398,193.892 124.231,192.225 127.5,191.5 Z M 123.5,245.5 C 175.834,245.333 228.168,245.5 280.5,246C 286.542,249.748 288.042,254.915 285,261.5C 283.786,263.049 282.286,264.215 280.5,265C 228.167,265.667 175.833,265.667 123.5,265C 117.458,261.252 115.958,256.085 119,249.5C 120.397,247.93 121.897,246.596 123.5,245.5 Z"/></g>
<g><path style="opacity:0.979" fill="#000000" d="M 351.5,308.5 C 391.618,306.144 422.785,321.477 445,354.5C 464.377,391.535 462.711,427.535 440,462.5C 408.027,499.952 368.86,510.119 322.5,493C 286.247,475.039 267.247,445.705 265.5,405C 269.786,350.89 298.453,318.724 351.5,308.5 Z M 358.5,341.5 C 365.309,340.481 369.809,343.148 372,349.5C 372.167,371.508 372.667,393.508 373.5,415.5C 379.017,410.149 384.684,404.982 390.5,400C 398.012,398.505 402.679,401.505 404.5,409C 403.856,411.74 402.689,414.24 401,416.5C 392.5,425 384,433.5 375.5,442C 365.417,449.129 355.75,448.462 346.5,440C 339,432.5 331.5,425 324,417.5C 319.176,411.786 319.343,406.286 324.5,401C 327.366,399.543 330.366,399.21 333.5,400C 339.316,404.982 344.983,410.149 350.5,415.5C 351.333,393.841 351.833,372.174 352,350.5C 352.833,346.506 354.999,343.506 358.5,341.5 Z"/></g>
</svg>
