<?xml version="1.0" encoding="UTF-8"?>
<!DOCTYPE svg PUBLIC "-//W3C//DTD SVG 1.1//EN" "http://www.w3.org/Graphics/SVG/1.1/DTD/svg11.dtd">
<svg xmlns="http://www.w3.org/2000/svg" version="1.1" width="512px" height="512px" style="shape-rendering:geometricPrecision; text-rendering:geometricPrecision; image-rendering:optimizeQuality; fill-rule:evenodd; clip-rule:evenodd" xmlns:xlink="http://www.w3.org/1999/xlink">
<g><path style="opacity:0.992" fill="#000000" d="M 31.5,39.5 C 180.834,39.3333 330.167,39.5 479.5,40C 487.333,42.5 492.5,47.6667 495,55.5C 495.667,86.1667 495.667,116.833 495,147.5C 494.5,149.333 493.333,150.5 491.5,151C 334.167,151.667 176.833,151.667 19.5,151C 17.6667,150.5 16.5,149.333 16,147.5C 15.3333,116.833 15.3333,86.1667 16,55.5C 18.7112,47.6242 23.8779,42.2909 31.5,39.5 Z M 264.5,72.5 C 278.981,70.3182 288.814,75.9849 294,89.5C 296.366,103.606 290.866,113.106 277.5,118C 263.394,120.366 253.894,114.866 249,101.5C 246.85,87.7949 252.016,78.1282 264.5,72.5 Z M 328.5,72.5 C 342.981,70.3182 352.814,75.9849 358,89.5C 360.366,103.606 354.866,113.106 341.5,118C 327.394,120.366 317.894,114.866 313,101.5C 310.85,87.7949 316.016,78.1282 328.5,72.5 Z M 392.5,72.5 C 406.981,70.3182 416.814,75.9849 422,89.5C 424.366,103.606 418.866,113.106 405.5,118C 391.394,120.366 381.894,114.866 377,101.5C 374.85,87.7949 380.016,78.1282 392.5,72.5 Z"/></g>
<g><path style="opacity:0.894" fill="#000000" d="M 267.5,87.5 C 278.86,86.71 282.193,91.5434 277.5,102C 266.964,105.997 262.464,102.497 264,91.5C 264.69,89.6498 265.856,88.3164 267.5,87.5 Z"/></g>
<g><path style="opacity:0.894" fill="#000000" d="M 331.5,87.5 C 342.86,86.71 346.193,91.5434 341.5,102C 330.964,105.997 326.464,102.497 328,91.5C 328.69,89.6498 329.856,88.3164 331.5,87.5 Z"/></g>
<g><path style="opacity:0.894" fill="#000000" d="M 395.5,87.5 C 406.86,86.71 410.193,91.5434 405.5,102C 394.964,105.997 390.464,102.497 392,91.5C 392.69,89.6498 393.856,88.3164 395.5,87.5 Z"/></g>
<g><path style="opacity:0.994" fill="#000000" d="M 15.5,165.5 C 18.1267,166.105 20.7934,166.605 23.5,167C 178.167,167.667 332.833,167.667 487.5,167C 489.891,166.713 492.224,166.213 494.5,165.5C 495.667,261.832 495.833,358.165 495,454.5C 492.167,462.667 486.667,468.167 478.5,471C 329.833,471.667 181.167,471.667 32.5,471C 24.3333,468.167 18.8333,462.667 16,454.5C 15.5,358.167 15.3333,261.834 15.5,165.5 Z M 157.5,207.5 C 167.461,206.283 176.794,208.116 185.5,213C 199.443,224.476 212.776,236.643 225.5,249.5C 222.645,252.52 219.979,255.687 217.5,259C 216.5,259.667 215.5,259.667 214.5,259C 202.8,247.631 190.8,236.631 178.5,226C 164.17,219.018 152.337,221.851 143,234.5C 137.33,249.004 140.83,260.838 153.5,270C 186.833,300 220.167,330 253.5,360C 242.56,362.1 232.56,359.766 223.5,353C 193.033,325.535 162.866,297.701 133,269.5C 120.966,248.343 124.132,229.843 142.5,214C 147.367,211.226 152.367,209.059 157.5,207.5 Z M 261.5,252.5 C 271.55,252.794 280.55,255.961 288.5,262C 319.019,289.522 349.186,317.355 379,345.5C 389.967,365.537 387.134,383.37 370.5,399C 356.49,409 341.823,410 326.5,402C 303.833,382 281.167,362 258.5,342C 248.977,333.475 239.81,324.642 231,315.5C 219.092,295.04 221.925,276.874 239.5,261C 246.299,256.462 253.632,253.628 261.5,252.5 Z M 261.5,284.5 C 278.651,292.18 287.151,305.514 287,324.5C 277,315.167 267,305.833 257,296.5C 254.821,291.181 256.321,287.181 261.5,284.5 Z"/></g>
<g><path style="opacity:0.957" fill="#000000" d="M 256.5,268.5 C 264.45,267.414 271.783,268.914 278.5,273C 307.667,299.5 336.833,326 366,352.5C 371.601,361.936 371.934,371.602 367,381.5C 355.755,393.818 343.255,395.318 329.5,386C 300.572,359.616 271.738,333.116 243,306.5C 235.146,289.22 239.646,276.553 256.5,268.5 Z M 261.5,284.5 C 256.321,287.181 254.821,291.181 257,296.5C 267,305.833 277,315.167 287,324.5C 287.151,305.514 278.651,292.18 261.5,284.5 Z"/></g>
</svg>
