<?xml version="1.0" encoding="UTF-8"?>
<!DOCTYPE svg PUBLIC "-//W3C//DTD SVG 1.1//EN" "http://www.w3.org/Graphics/SVG/1.1/DTD/svg11.dtd">
<svg xmlns="http://www.w3.org/2000/svg" version="1.1" width="512px" height="512px" style="shape-rendering:geometricPrecision; text-rendering:geometricPrecision; image-rendering:optimizeQuality; fill-rule:evenodd; clip-rule:evenodd" xmlns:xlink="http://www.w3.org/1999/xlink">
<g><path style="opacity:0.938" fill="#000000" d="M 258.5,6.5 C 286.98,6.82652 304.146,20.8265 310,48.5C 311.918,59.2513 307.751,63.4179 297.5,61C 295.951,59.786 294.785,58.286 294,56.5C 291.746,31.4628 278.246,20.9628 253.5,25C 241.87,29.6312 235.037,38.1312 233,50.5C 232.5,62.1619 232.333,73.8286 232.5,85.5C 257.836,85.3334 283.169,85.5 308.5,86C 318.364,87.5308 324.864,93.0308 328,102.5C 328.667,127.5 328.667,152.5 328,177.5C 325.5,185.333 320.333,190.5 312.5,193C 279.5,193.667 246.5,193.667 213.5,193C 206.091,190.592 200.924,185.758 198,178.5C 196.373,154.216 196.039,129.883 197,105.5C 198.893,94.6069 205.227,87.9402 216,85.5C 216.333,72.1667 216.667,58.8333 217,45.5C 222.327,23.3366 236.161,10.3366 258.5,6.5 Z M 217.5,101.5 C 248.254,101.015 278.921,101.515 309.5,103C 310.701,103.903 311.535,105.069 312,106.5C 312.667,128.5 312.667,150.5 312,172.5C 310.833,173.667 309.667,174.833 308.5,176C 277.414,176.984 246.414,176.651 215.5,175C 214.874,174.25 214.374,173.416 214,172.5C 213.333,150.167 213.333,127.833 214,105.5C 215.376,104.295 216.542,102.962 217.5,101.5 Z"/></g>
<g><path style="opacity:0.939" fill="#000000" d="M 45.5,58.5 C 87.8346,58.3333 130.168,58.5 172.5,59C 176.666,59.985 178.666,62.6516 178.5,67C 178.666,71.3484 176.666,74.015 172.5,75C 129.833,75.3333 87.1667,75.6667 44.5,76C 38.6351,77.5109 34.4684,81.0109 32,86.5C 31.5,188.499 31.3333,290.499 31.5,392.5C 180.833,392.5 330.167,392.5 479.5,392.5C 479.667,290.499 479.5,188.499 479,86.5C 475.007,79.2514 468.84,75.7514 460.5,76C 424.167,75.6667 387.833,75.3333 351.5,75C 348.484,73.4714 347.151,70.9714 347.5,67.5C 347.336,63.8226 349.003,61.3226 352.5,60C 390.833,59.3333 429.167,59.3333 467.5,60C 483.587,63.0881 493.421,72.5881 497,88.5C 497.667,201.167 497.667,313.833 497,426.5C 493.752,442.08 484.252,451.247 468.5,454C 418.501,454.5 368.501,454.667 318.5,454.5C 319.751,465.51 321.085,476.51 322.5,487.5C 327.511,487.334 332.511,487.501 337.5,488C 342.906,489.98 344.739,493.814 343,499.5C 342.065,502.102 340.232,503.602 337.5,504C 282.167,504.667 226.833,504.667 171.5,504C 165.451,500.931 164.118,496.431 167.5,490.5C 168.665,489.416 169.998,488.583 171.5,488C 176.75,487.807 181.917,487.307 187,486.5C 189.051,475.524 190.885,464.524 192.5,453.5C 142.166,453.667 91.8322,453.5 41.5,453C 27.2978,449.465 18.4645,440.631 15,426.5C 14.3333,312.833 14.3333,199.167 15,85.5C 19.7407,70.2536 29.9074,61.2536 45.5,58.5 Z M 217.5,101.5 C 216.542,102.962 215.376,104.295 214,105.5C 213.333,127.833 213.333,150.167 214,172.5C 214.374,173.416 214.874,174.25 215.5,175C 246.414,176.651 277.414,176.984 308.5,176C 309.667,174.833 310.833,173.667 312,172.5C 312.667,150.5 312.667,128.5 312,106.5C 311.535,105.069 310.701,103.903 309.5,103C 278.921,101.515 248.254,101.015 217.5,101.5 Z M 110.5,247.5 C 207.501,247.333 304.501,247.5 401.5,248C 406,249.833 409.167,253 411,257.5C 411.667,276.5 411.667,295.5 411,314.5C 409.167,319 406,322.167 401.5,324C 304.167,324.667 206.833,324.667 109.5,324C 105.026,322.192 101.859,319.026 100,314.5C 99.3333,295.5 99.3333,276.5 100,257.5C 102.106,252.557 105.606,249.224 110.5,247.5 Z M 30.5,408.5 C 180.167,408.5 329.833,408.5 479.5,408.5C 479.666,414.509 479.499,420.509 479,426.5C 475.921,433.125 470.755,436.958 463.5,438C 324.833,438.667 186.167,438.667 47.5,438C 39.8299,437.251 34.3299,433.417 31,426.5C 30.5005,420.509 30.3338,414.509 30.5,408.5 Z M 210.5,454.5 C 240.833,454.5 271.167,454.5 301.5,454.5C 303.446,465.454 305.113,476.454 306.5,487.5C 272.5,487.5 238.5,487.5 204.5,487.5C 206.181,476.409 208.181,465.409 210.5,454.5 Z"/></g>
<g><path style="opacity:0.911" fill="#000000" d="M 258.5,127.5 C 261.518,127.335 264.518,127.502 267.5,128C 269.333,128.5 270.5,129.667 271,131.5C 271.667,136.833 271.667,142.167 271,147.5C 266.228,153.125 261.228,153.458 256,148.5C 255.333,142.5 255.333,136.5 256,130.5C 257.045,129.627 257.878,128.627 258.5,127.5 Z"/></g>
<g><path style="opacity:0.916" fill="#000000" d="M 112.5,230.5 C 210.193,230.016 307.86,230.516 405.5,232C 416.263,235.097 423.43,241.931 427,252.5C 428.108,263.62 428.608,274.787 428.5,286C 428.608,297.213 428.108,308.38 427,319.5C 422.766,331.734 414.266,338.901 401.5,341C 302.465,341.988 203.465,341.655 104.5,340C 94.3333,336.5 87.5,329.667 84,319.5C 82.3926,298.876 82.0593,278.21 83,257.5C 86.374,241.287 96.2074,232.287 112.5,230.5 Z M 110.5,247.5 C 105.606,249.224 102.106,252.557 100,257.5C 99.3333,276.5 99.3333,295.5 100,314.5C 101.859,319.026 105.026,322.192 109.5,324C 206.833,324.667 304.167,324.667 401.5,324C 406,322.167 409.167,319 411,314.5C 411.667,295.5 411.667,276.5 411,257.5C 409.167,253 406,249.833 401.5,248C 304.501,247.5 207.501,247.333 110.5,247.5 Z"/></g>
<g><path style="opacity:0.913" fill="#000000" d="M 142.5,265.5 C 144.564,265.687 146.564,266.187 148.5,267C 150.683,269.35 153.016,271.517 155.5,273.5C 158.676,269.814 162.509,267.148 167,265.5C 173.195,266.684 175.861,270.351 175,276.5C 172.688,279.646 170.188,282.646 167.5,285.5C 170.188,288.354 172.688,291.354 175,294.5C 175.983,303.182 172.15,306.682 163.5,305C 160.37,302.872 157.537,300.372 155,297.5C 152.5,300 150,302.5 147.5,305C 138.833,306.663 135,303.163 136,294.5C 138.128,291.37 140.628,288.537 143.5,286C 139.388,283.074 136.722,279.241 135.5,274.5C 136.027,269.985 138.36,266.985 142.5,265.5 Z"/></g>
<g><path style="opacity:0.919" fill="#000000" d="M 208.5,265.5 C 211.425,265.46 214.091,266.293 216.5,268C 218.35,270.018 220.35,271.851 222.5,273.5C 225.676,269.814 229.509,267.148 234,265.5C 240.846,267.53 243.179,271.863 241,278.5C 238.65,280.683 236.483,283.016 234.5,285.5C 238.374,288.705 241.04,292.705 242.5,297.5C 240.891,303.957 236.891,306.457 230.5,305C 227.37,302.872 224.537,300.372 222,297.5C 219.463,300.372 216.63,302.872 213.5,305C 204.837,306 201.337,302.167 203,293.5C 205.5,291 208,288.5 210.5,286C 206.157,283.013 203.49,279.013 202.5,274C 202.435,269.608 204.435,266.774 208.5,265.5 Z"/></g>
<g><path style="opacity:0.918" fill="#000000" d="M 275.5,265.5 C 277.564,265.687 279.564,266.187 281.5,267C 283.683,269.35 286.016,271.517 288.5,273.5C 291.409,270.423 294.742,267.923 298.5,266C 306.702,265.544 309.869,269.377 308,277.5C 305.872,280.63 303.372,283.463 300.5,286C 303,288.5 305.5,291 308,293.5C 309.663,302.167 306.163,306 297.5,305C 294.37,302.872 291.537,300.372 289,297.5C 286.463,300.372 283.63,302.872 280.5,305C 274.109,306.457 270.109,303.957 268.5,297.5C 269.96,292.705 272.626,288.705 276.5,285.5C 272.789,282.306 270.123,278.473 268.5,274C 269.244,269.765 271.577,266.931 275.5,265.5 Z"/></g>
<g><path style="opacity:0.914" fill="#000000" d="M 342.5,265.5 C 344.564,265.687 346.564,266.187 348.5,267C 350.683,269.35 353.016,271.517 355.5,273.5C 358.676,269.814 362.509,267.148 367,265.5C 373.195,266.684 375.861,270.351 375,276.5C 373.262,280.241 370.762,283.408 367.5,286C 370.372,288.537 372.872,291.37 375,294.5C 376,303.163 372.167,306.663 363.5,305C 361,302.5 358.5,300 356,297.5C 352.193,303.156 347.027,305.656 340.5,305C 336.489,302.649 334.989,299.149 336,294.5C 338.312,291.354 340.812,288.354 343.5,285.5C 341.517,283.016 339.35,280.683 337,278.5C 334.449,272.271 336.283,267.938 342.5,265.5 Z"/></g>
</svg>
