<?xml version="1.0" ?><svg viewBox="0 0 40.68 29.42" xmlns="http://www.w3.org/2000/svg"><defs><style>.cls-1{fill:#f7931e;}</style></defs><title/><g data-name="Layer 2" id="Layer_2"><g data-name="Layer 1" id="Layer_1-2"><path class="cls-1" d="M20.34,29.42a4.29,4.29,0,1,1,4.29-4.29A4.3,4.3,0,0,1,20.34,29.42Zm0-6.33a2,2,0,1,0,2,2A2,2,0,0,0,20.34,23.08Z"/><path class="cls-1" d="M20.34,30"/><path class="cls-1" d="M39.56,11.87a1.12,1.12,0,0,1-.9-.45A22.88,22.88,0,0,0,2,11.42a1.13,1.13,0,1,1-1.8-1.35,25.13,25.13,0,0,1,40.23,0,1.12,1.12,0,0,1-.9,1.8Z"/><path class="cls-1" d="M20.34,30"/><path class="cls-1" d="M35.37,16.05a1.12,1.12,0,0,1-.93-.49,17,17,0,0,0-28.2,0,1.13,1.13,0,1,1-1.86-1.27,19.29,19.29,0,0,1,31.93,0,1.12,1.12,0,0,1-.93,1.76Z"/><path class="cls-1" d="M31.74,19.68a1.12,1.12,0,0,1-1-.56,12,12,0,0,0-20.85,0A1.12,1.12,0,1,1,8,18a14.27,14.27,0,0,1,24.75,0,1.12,1.12,0,0,1-1,1.69Z"/><path class="cls-1" d="M8.94,18.56"/><path class="cls-1" d="M31.74,18.56"/><path class="cls-1" d="M20.34,30"/><path class="cls-1" d="M28,23.43a1.13,1.13,0,0,1-1.06-.74,7,7,0,0,0-13.2,0,1.13,1.13,0,1,1-2.11-.78,9.28,9.28,0,0,1,17.42,0A1.12,1.12,0,0,1,28,23.43Z"/><path class="cls-1" d="M12.68,22.3"/><path class="cls-1" d="M20.34,30"/><path class="cls-1" d="M28,22.3"/></g></g></svg>